<svg version="1" xmlns="http://www.w3.org/2000/svg" width="682.667" height="682.667" viewBox="0 0 512.000000 512.000000"><path d="M253 40.2c0 6.2-.1 24-.1 39.5V108l-3.2.1c-5.4 0-11.8.9-22.4 3-44.9 8.8-83.3 38.2-103.7 79.4-6.2 12.5-12 29.5-13.1 38.5-.1.8-.5 3.5-.9 6-.9 5.5-1.4 10.5-1.5 14.7l-.1 3.3H29v7l37.3.1c20.4.1 38.2 0 39.5-.1 1.9-.1 2.2.4 2.3 3.2.1 6.4 1.2 14.6 3.4 25.8 2.8 14.6 10.6 33.1 20.2 48 23.4 36.1 63.3 61.6 104.4 66.6 3 .3 6.3.7 7.4.9 1.1.1 3.7.3 5.7.4l3.7.1v27.3c0 14.9.1 32.7.1 39.4V484h7.5l-.1-39.5-.2-39.5 2.7-.1c4.7-.1 9.7-.7 17.2-1.9 55.1-8.8 101-48.2 117.8-101.1 1.7-5.2 3.3-10.8 3.6-12.4.3-1.7.8-3.7 1-4.5.1-.8.6-4 1-7s.9-6.2 1.1-7c.1-.8.3-3.7.3-6.3l.1-4.8 19.8.1c10.8 0 28.6.1 39.5 0H484v-7h-79l-.1-2.3c-.3-11.2-1.3-18.1-4.7-31.7-15.4-60.4-68.5-105-131.6-110.5-3.8-.3-7.3-.8-7.7-1-.4-.3-.7-16.6-.7-36.2 0-19.7-.1-37.3-.1-39.1-.1-3-.3-3.2-3.6-3.2H253v11.2zm-.1 131c0 26.5.4 48.4.8 48.7.6.5 1 29 .4 33.6-.1.6-6.2.9-16.8.6-9.3-.2-38.8-.5-65.7-.7l-48.9-.4.7-6.8c.9-10.4 1.7-15.1 3.7-22.7 1.1-3.9 2.1-7.7 2.3-8.6 1-3.9 7-17.1 11.1-24.4 13.4-23.5 34.7-43.2 58.6-54.4 11.6-5.4 18.6-7.7 30.3-10 12.5-2.5 12.9-2.6 18.8-2.8l4.7-.2v48.1zm24.1-46.6c43.6 6.7 81.3 35 100.4 75.5 4 8.3 8.8 22.5 10.1 29.8.3 1.4.7 3.6.9 4.9.3 1.3.8 5.9 1.2 10.3l.6 7.9h-47.9c-26.4 0-48.3.3-48.7.7-.8.9-34.5 1.1-34.7.3-.6-3.4-.2-33.8.5-34.8.5-.7.9-21.1.9-48 0-25.7.2-47.1.4-47.5.5-.8 7.6-.4 16.3.9zm-23 134.3c.8.2.6 34.6-.3 35.2-.4.3-.8 22-.8 48.2l.1 47.6-7.3-.5c-3.9-.2-9.4-.9-12.2-1.4-2.7-.6-6.1-1.2-7.5-1.5-6.4-1.2-19.5-6.1-29.5-11-41.1-20.3-69.1-61.5-73.1-107.8l-.7-7.7h48.1c26.5 0 48.3-.3 48.6-.8.3-.6 32.3-.9 34.6-.3zm39.7.4c.6.4 22.6.7 48.8.7h47.6l-.6 8.3c-.3 4.5-1.3 11.3-2.2 15.2-.9 3.8-1.6 7.2-1.6 7.5.1.3-1.3 4.3-2.9 9-11.7 33.2-35.6 60.4-66.3 75.5-19.2 9.4-34.5 13.4-52.5 13.9l-3.5.1-.1-46.5c-.1-25.6-.6-48.1-1-50-.7-2.9-1-20.4-.5-32l.1-2.5h16.8c9.2.1 17.2.4 17.9.8z"/></svg>