<svg version="1" xmlns="http://www.w3.org/2000/svg" width="682.667" height="682.667" viewBox="0 0 512.000000 512.000000"><path d="M140.5 167.6v47.8h10l.3-18.6.2-18.6 20.8.2c14.8.1 21.4.5 23 1.5 4.2 2.3 5.5 7.3 5.6 22l.1 13.5 4.8-.1c2.6-.1 5.1-.2 5.5-.2.5-.1.7-7.1.6-15.6-.2-18.1-1.2-21.3-7.3-24.2l-3.8-1.8 3.5-2c6.3-3.5 7.5-7 7.7-21.4.2-13.9-1-19.9-4.7-23.8-4.9-5.3-7.1-5.6-37.8-6.1l-28.6-.4.1 47.8zm53.6-36.2c4.7 1.4 6.3 5.8 6.3 17.9-.1 13.9-1.6 16.8-9.6 18.3-2.7.4-28.4.8-37.5.5l-2.3-.1v-37.8l20.3.2c11.1.2 21.4.6 22.8 1zM349.2 126.3l-4.2 2.1.2 43.5.3 43.5 3.8-.1c2 0 4.2-.1 4.7-.2 1.2-.1 1.4-91.1.3-91-.5 0-2.7 1-5.1 2.2zM413 133.1l-4.5 2-.2 5.4c-.1 6.2.3 6.5 6.2 3.2 3.9-2.1 4-2.4 4.1-7.5 0-2.8-.3-5.2-.6-5.2-.3.1-2.5 1-5 2.1zM370.9 135.3l-4.4 2.2-.5 8-.5 8H362c-3.4 0-3.5.1-3.8 4.2l-.3 4.3h4c3.8 0 4.1.2 4.1 2.7.3 38.7.5 41.8 2.6 45.3 2.8 4.8 7.5 6.3 18.6 5.8 12.5-.6 14.4-2.7 15.3-16.4.4-7.3.4-7.5-1.7-6.8-5.4 1.7-8.3 4.1-8 6.5.2 1.4-.6 3.7-1.8 5.2-1.7 2.2-3 2.7-6.4 2.7-8.1 0-8.1 0-8.1-23.7v-20.8l6.5-.2c3.6-.1 9.2-.2 12.5-.2l6-.1-.1-3.3c-.1-1.7-.2-3.7-.3-4.2 0-.7-4.2-1-11.3-1-6.2.1-11.8 0-12.5-.3-.7-.2-1.1-3.6-1.1-9.9 0-5.2-.2-9.7-.4-9.9-.3-.2-2.4.6-4.9 1.9zM233.5 147.9c-7.6 2-11.6 5.4-14 12.1-2 5.6-2.4 35.1-.5 42 1.6 5.9 7.2 11.3 13.5 12.9 6.2 1.6 22.8 1.6 28.5.1 8.2-2.2 14.1-8.7 15.2-17 .3-2.4 0-2.5-4.7-2.5-4.9-.1-5 0-6.5 4-2.2 5.8-6.1 7.5-17.8 7.5-15.6 0-18.7-2.6-19.1-16.1l-.2-6.9 3.8-.1c2.1 0 13-.1 24.3-.2l20.5-.2-.1-9c-.1-5-.7-11-1.4-13.5-1.5-5.6-7-11.1-12.6-12.6-4.7-1.2-24.7-1.6-28.9-.5zm26.6 10c3.6 1.8 5.1 4.7 5.7 11.3l.4 5.8h-38.5l.7-6.2c.7-7 3-10.3 8-11.7 4.3-1.2 20.6-.6 23.7.8zM294.5 147.9c-8 2-13 7.7-12.3 13.9.3 2.5.7 2.7 4.8 2.7 3.8 0 4.5-.3 5-2.4.3-1.3 1.8-3.4 3.3-4.5 2.4-1.8 4.2-2.1 12.5-2 16.7 0 18.5 1.4 18.7 15 .1 4.6-.1 8.4-.3 8.4-.3 0-1.4-.8-2.4-1.7-4.8-4.3-28.2-5.2-36.2-1.3-6 2.9-7.9 7.1-8 17.5-.1 17.9 5.5 22.6 26.6 22.6 9.2 0 15.1-1.6 18.1-4.8 2.9-3 3.4-2.9 3.1.7-.2 3.1-.1 3.2 4.1 3.2 1.4 0 3.1 0 3.8-.1 1.1-.1 1.3-5.5 1.3-28.4-.1-26.4-.2-28.4-2.1-31.7-3.5-6-7.9-7.4-23.5-7.6-7.4-.1-14.8.1-16.5.5zM323 185c3.4 2.4 3.2 1.9 3.5 8.5.3 9.8-3 12.4-17 13.1-14.9.7-19.3-2.2-19.3-12.7 0-8.4 2.2-10.9 10.3-11.8 8.8-.9 19 .4 22.5 2.9zM447.5 148.4c-2.2.9-5.2 2.9-6.7 4.6l-2.8 3v-8l-5 2.5-5 2.5.2 31.2.3 31.1 4.4.1c2.4.1 4.5-.3 4.7-.9.2-.5.4-11.4.6-24 .3-26.4.8-28.2 8.7-32.2 5.7-2.9 15.8-2.7 19.9.4 3.6 2.7 3.8 4.4 3.7 32.5 0 25.9-.5 24.1 5.9 24 1.5 0 3.1-.3 3.4-.6.3-.3.6-10.8.6-23.3.1-20.5.4-23.2 2.1-26.7 3.2-6.4 6.3-8.1 15.4-8.1 8.3 0 11.2 1.3 13.2 6 .5 1.3.8-.7.8-5.8.1-9.4.3-9.2-13-9.2-8.8 0-9.9.2-13.6 2.8-2.2 1.5-4.6 3.8-5.3 5.2l-1.3 2.4-2.1-3.2c-3.4-5-7.7-6.9-16.9-7.3-5.6-.3-9.5 0-12.2 1zM412.6 150.5l-4.9 2.2-.1 30.7c-.1 18.1.3 31 .8 31.4 1.2.7 9.6.9 9.7.2.4-1.9.3-66.2-.1-66.5-.3-.1-2.7.8-5.4 2z"/><path d="M116.5 196.9c-6 2.1-14.6 5-19 6.5s-9.4 3.4-11.2 4.2c-1.7.8-3.6 1.4-4.1 1.4-1.9 0-25.3 10.9-33.5 15.6-18.6 10.6-28.6 21.5-28.7 31.1 0 7 5.7 18.5 13.2 26.3 18.6 19.5 54.6 36.7 102.4 49 8.2 2.1 16.1 4.1 17.5 4.4 29.1 5.9 50 9.1 70.9 11.1 3 .3 8 .7 11 1 7.6.8 15.3 1.3 30.5 1.9 45.1 2 49.2 2.3 68 4.7 41.5 5.2 60.9 14.2 60.7 28.1-.1 4.7 0 4.7 13-2.4 5.1-2.8 21.5-11.1 36.3-18.5 14.9-7.4 27.2-13.6 27.4-13.8.2-.2-.5-.4-1.5-.3-1.1 0-4.4-.2-7.4-.6-3-.3-7.7-.9-10.5-1.1-2.7-.3-7-.7-9.5-1-7.7-.8-25.8-2.2-38.5-3-39.2-2.3-42.2-2.5-94-4-15.7-.5-33.2-1.3-43-2-16.6-1.2-21.4-1.5-24.7-2-2-.3-5.6-.7-8-.9-6.2-.7-13.9-1.6-16.8-2.1-1.4-.2-4.5-.7-7-1-15.4-2-42.4-7.3-58.8-11.6-52.4-13.8-91.2-35.8-101.4-57.5-2.6-5.6-3-7.4-2.5-11.9.7-6.7 3.5-12.2 9.5-18.4 4.3-4.5 18.3-15.1 19.9-15.1.3 0 1.5-.7 2.5-1.7 1-.9 1.8-1.2 1.8-.7s-2.1 2.6-4.7 4.5c-5.4 4-9.9 9.9-11.8 15.5-6.3 18.4 18.2 41.8 62.2 59.3 12.3 4.9 27.3 9.9 37.8 12.7.6.1 4.4 1.2 8.5 2.4s8.4 2.4 9.5 2.6c3.6.7 5.9 1.2 14.5 3.3 4.7 1.1 9.7 2.2 11 2.4 1.4.3 6.3 1.2 11 2 8.1 1.5 14.7 2.6 19.7 3.2 1.3.2 4 .6 6 .9 4 .7 7.3 1.1 16.3 2.2 3 .3 6.3.8 7.2.9.9.2 5.7.7 10.5 1 4.8.4 9.9.9 11.3 1 19.5 2.4 84.1 2.4 98 .1 1.4-.3 5.6-.7 9.4-1.1 3.8-.3 7.2-.8 7.5-.9.3-.2 3.1-.7 6.1-1.1 11.6-1.5 15.3-2.2 32.5-6 25.9-5.8 67.5-18.7 68.2-21.2.3-.7-4.3.1-12.4 2.2-24.2 6.3-50.6 11.4-72.3 13.9-17.5 2.1-22.8 2.6-36 3.3-24.2 1.3-91.5.6-102-1.2-1.4-.2-6.1-.7-10.5-1-4.4-.3-9.1-.8-10.5-1-1.4-.2-4.5-.6-7-.9-11.1-1.3-13.7-1.6-16-2.1-1.4-.3-4.1-.7-6-1-94.9-14.8-165.2-55.9-149.2-87.2 4.3-8.3 16.4-17.7 31.4-24.4 4.9-2.2 8.2-4 6.7-3.8-.2 0-5.3 1.7-11.4 3.8z"/><path d="M279.8 222.7c0 .4-.2 11.3-.3 24.1l-.1 23.3 3-.3 3.1-.3v-25h13V270h6.1v-14.1c-.1-15.5-.7-16.9-6.4-16.3-6.7.7-11.2.7-11.9 0-.4-.4-.8-4.4-.8-8.9 0-8.2 0-8.2-2.8-8.5-1.5-.2-2.8 0-2.9.5zM401.4 245.7l.1 23.8h5.9l.1-23.8V222h-6.1v23.7zM504.9 227.5c-.9 3.8-.2 5 2.9 5.3 3 .3 3.2.1 3.2-2.7 0-2.8-.3-3.1-3-3.1-1.6 0-3 .2-3.1.5zM176.9 231.1c-.7.4-1.3 2.5-1.4 4.6 0 3.4-.3 3.8-2.8 4.1-2 .3-2.7.8-2.5 2 .2.9.9 1.8 1.6 1.8.6.1 1.8.2 2.5.3 1.1.1 1.4 2.6 1.3 11.2-.2 13.8.4 14.9 7.9 14.9 3 0 5.6-.4 5.9-.8.9-1.5-.9-3-3.7-3-1.5 0-3-.2-3.4-.5-.3-.3-.6-5.2-.7-10.7-.1-8.2.2-10.4 1.4-11 .8-.4 2.1-.5 2.8-.3 2.1.8 4.2-.5 3.6-2.1-.3-.9-2.1-1.6-4.2-1.8-3.7-.3-3.7-.3-3.4-4.4.2-3.4-.2-4.3-1.7-4.7-1-.2-2.5-.1-3.2.4zM337.6 239.8c-.3.2-4.4.5-9.1.4H320V270h6v-26h13v26h6.1l-.3-14.7-.3-14.7-3.2-.7c-1.8-.3-3.5-.4-3.7-.1zM203.2 240.8c-1.3.9-2 26.7-.7 28 .8.9 18.2 1.5 21.1.7 2.4-.5 3.8-6 2-7.3-2-1.5-5.1-.8-5.4 1.3-.6 2.8-1.3 3-7 2.7-4.8-.4-5-.5-5.4-3.5-.8-7.6-.6-7.7 9.3-7.7s9.1.7 9-8.4c0-2.6-.3-5.1-.6-5.5-1-1-20.8-1.3-22.3-.3zm15.1 3.1c1.3.1 1.7 1 1.7 3.9v3.8l-5.7-.1h-5.8l-.6-3.8c-.3-2-.5-3.8-.3-3.9.2-.3 5.8-.2 10.7.1zM242.1 240.9c-1.9 1.2-2.2 25.8-.3 27.8 1.6 1.6 18.4 1.8 21.3.3 1.4-.8 1.9-2.1 1.9-5.5 0-4.2-.1-4.4-3-4.3-2.7.1-3 .4-3 3.5 0 3.2-.1 3.3-4.2 3.4-2.4 0-5.1.2-6 .4-1.1.2-1.8-.3-1.9-1.3-.4-6-.3-21.2.1-21.3.7-.1 9.3-.1 10.8 0 .7.1 1.2 1.4 1.2 3.1 0 2.8.3 3 2.8 2.7 2.3-.3 2.8-.9 3-3.7.5-5-1.5-6-12.2-6-5 0-9.7.4-10.5.9zM362.1 240.9c-2 1.3-2.2 25.8-.3 27.8 1.6 1.6 19.3 1.9 22.2.3 1.6-.8 1.8-2.4 1.7-14 0-11.3-.2-13.2-1.7-14-2.2-1.2-20.1-1.2-21.9-.1zm17 3c.3.1.6 5 .6 11.1v11l-4.6.1c-2.5 0-5.4.2-6.3.4-2 .4-1.9 1-2.1-13.2l-.2-9.2 4.5-.3c3.9-.3 5.3-.3 8.1.1zM424.2 241.2c-1.7 1.7-1.7 25.9 0 27.6 1.4 1.4 20.5 1.6 22.8.2 2.1-1.3 2.1-26.7-.1-28.1-2.2-1.3-21.3-1.1-22.7.3zm17.5 3.1c.7.8.7 20.3-.1 21.6-.3.4-1.5.7-2.8.5-1.3-.1-4-.3-6-.3l-3.8-.1v-10.9c0-10.6.1-11 2.3-11.3 3.7-.5 9.6-.2 10.4.5zM466.5 242.3c-2.4 2.1-2.6 2.8-2.7 12.5-.1 9.4.1 10.6 2.1 12.5 1.8 1.9 3.3 2.2 9.7 2.1h7.5l-.3 3.5c-.3 3.5-.3 3.6-5 3.4-7.4-.1-7.8-.2-7.5-1.5.2-1-1.8-1.3-5.2-.9-1.7.2.2 4.9 2.2 5.5 4.1 1.1 19.3.6 20.5-.6.8-.8 1.2-6.7 1.2-19.9v-18.6l-10-.1c-9-.1-10.3.1-12.5 2.1zm16.5 12.8V266h-5.9c-4.4 0-6-.4-6.5-1.6-1.2-3.1-.7-19.2.7-19.7.6-.3 3.6-.5 6.5-.5l5.2.1v10.8zM505 245.5c-.1 3-.1 9.3-.1 14 0 4.7 0 8.9.1 9.5 0 .5 1.4 1 3 1h3v-30h-3c-3 0-3 .1-3 5.5zM171.1 278.7c-.9.6-1.3 1.4-1 1.8.5.4 212.5.8 281.7.5 3.1 0 4.2-.4 4.2-1.5 0-.8-.6-1.6-1.2-1.6-.7-.1-64.5-.2-141.7-.3-105.7-.1-140.8.2-142 1.1zM505.3 278.7c-.8 2.1.5 3 3.7 2.5 2.2-.3 3-.9 2.8-2.1-.4-1.9-5.8-2.3-6.5-.4z"/></svg>