<svg version="1" xmlns="http://www.w3.org/2000/svg" width="682.667" height="682.667" viewBox="0 0 512.000000 512.000000"><path d="M488.5 107.8c-4.4 2.6-16.5 9.6-27 15.6-10.4 5.9-19.7 11.2-20.5 11.7-1.4.8-20.6 11.8-30.5 17.4-3.3 1.8-17.9 10.1-52 29.5-1.6 1-4.6 2.7-6.6 3.9l-3.6 2.1-1.5-2.2c-2.9-4.4-15.3-16.2-23.2-22.1-13.7-10.1-36.5-19.9-51.7-22.2-25.4-3.9-46-1.7-68.3 7.2-54.5 21.7-86.9 80-76.2 137.3.2 1.4.5 2.9.5 3.5.3 2.4 2 3.9 3.3 2.8 1.3-1 9.5-5.5 21-11.6 3.1-1.7 5.5-3.3 5.3-3.7-.9-1.5-1.9-14.1-1.7-23 .3-24.4 12.6-54.5 29.3-71.9 18.8-19.5 44.9-29.5 72.7-27.8 5.3.3 10.6.8 11.7 1.1 1.1.2 4 .9 6.5 1.5 7 1.6 14.9 4.5 21.9 8.1 5.9 2.9 13.8 7.7 15.1 9 .3.3 2.3 1.8 4.5 3.4 6 4.3 18.8 17.8 23.5 24.6 13.8 20.3 20.1 40.5 20.1 64 0 29.2-8.1 54.3-24.3 75.7-15.9 21.1-38.9 34.7-67.6 39.8-7.7 1.4-35.8 1.4-44.7 0-8.4-1.3-28.1-6.6-33.2-9-3-1.3-5.1-1.9-4.7-1.3 1.1 1.7 18.1 9.3 26.4 11.8 12.2 3.6 25.7 5.6 37.5 5.5 13.3-.2 19.1-1 31.4-4.1 22.1-5.8 40.4-16.5 57.1-33.4 17.4-17.6 28.5-38.9 33.6-64 2.4-11.7 2.4-33.6 0-45.5-1.8-8.9-5.7-21.5-8.2-26.7-.8-1.5-1.4-2.9-1.4-3.1 0-.3 3.3-3.1 7.3-6.3 3.9-3.2 7.4-6.1 7.7-6.4.3-.3 1.4-1.3 2.6-2.1 1.1-.8 4.1-3 6.5-5.1 2.4-2 17.5-14 33.4-26.8 16-12.7 29.9-23.9 31-24.8 1.1-.9 11.8-9.5 23.8-19.1 19-15.2 22.6-18.2 21.5-18.1-.2.1-3.9 2.2-8.3 4.8z"/><path d="M290 221.1c-19 10.9-35.6 20.5-37 21.2-1.4.7-10.4 5.9-20 11.4s-19.5 11.1-22 12.5c-2.5 1.4-8 4.6-12.3 7.2-4.3 2.5-8 4.6-8.2 4.6-.1 0-8.5 4.7-18.5 10.5-9.9 5.8-18.3 10.5-18.5 10.5-.2 0-3.9 2.1-8.2 4.6-4.3 2.6-10 5.9-12.8 7.4-2.7 1.5-11.1 6.3-18.5 10.5-7.4 4.3-15.6 9-18.1 10.4-32.7 18.5-81.6 46.7-81.5 46.9.2.1 19.2-4.5 42.2-10.3 23-5.8 42.8-10.7 43.9-11 1.1-.2 5.3-1.3 9.3-2.4l7.3-1.9-.4 27.9c-.3 20-.1 27.6.7 27.1 1.5-1.1 10.6-8.3 13.1-10.4 1.1-.9 5.2-4.2 9-7.3 3.9-3.1 7.7-6.1 8.5-6.8.8-.7 6.2-5 12-9.6 5.8-4.5 11.9-9.5 13.6-10.9 1.7-1.5 4.3-3.6 5.8-4.7 1.6-1.1 3.3-2.5 4-3 .6-.6 8.1-6.7 16.6-13.5 8.5-6.8 15.7-12.7 16-13 .3-.3 1.4-1.3 2.6-2.1 1.1-.8 4.1-3 6.5-5.1 2.4-2 11.4-9.1 19.9-15.9 8.5-6.8 15.7-12.6 16-12.9.3-.3 2.5-2.1 5-4s5.4-4.3 6.5-5.2c1.1-.9 15.3-12.3 31.5-25.2 16.2-13 31.3-25.1 33.4-26.9 2.1-1.7 4.3-3.5 4.9-3.8 1.9-1.3-14-27-16.6-26.8-.7 0-16.7 9-35.7 20z"/></svg>