<svg version="1" xmlns="http://www.w3.org/2000/svg" width="682.667" height="682.667" viewBox="0 0 512.000000 512.000000"><path d="M453 128.1c-23.9 13.7-43.5 24.9-43.5 24.9s-13.8 7.8-30.5 17.4l-30.5 17.4-3-3.6c-26-31.4-68-48.3-108.9-43.8-44.8 5-83.5 33.5-101.1 74.7-9.5 22-12.7 51.5-7.9 72.1.1.5.2 1.4.3 2 .3 2.7 1.9 4.2 3.3 3.1 1.3-1 9.5-5.5 21-11.6 3.1-1.7 5.5-3.4 5.3-3.7-.8-1.2-1.9-14.2-1.8-21 0-11.8 2.2-22.9 6.9-36 13.2-36.9 40.4-60.2 76.2-65 8.3-1.2 25-1 30.7.4 1.1.2 4 .9 6.5 1.5 7 1.6 14.9 4.5 21.9 8.1 5.9 2.9 13.8 7.7 15.1 9 .3.3 2.3 1.8 4.5 3.4 6.9 4.9 19.5 18.6 25 27 12.8 19.7 18.6 38.9 18.6 61.6 0 29.2-8.1 54.3-24.3 75.7-15.9 21.1-38.9 34.7-67.6 39.8-7.7 1.4-35.8 1.4-44.7 0-8.4-1.3-28.2-6.7-33.4-9-9.7-4.5-6.5-1.8 4.1 3.3 18.4 9 37.4 13.2 56.7 12.5 14.8-.4 13.4-.3 21.6-1.9 25.5-5.2 46.2-16.2 64.5-34.4 18.1-18.1 29.4-39.2 34.6-65 2.4-11.7 2.4-33.6 0-45.5-1.8-8.9-5.7-21.5-8.2-26.7-.8-1.5-1.4-2.9-1.4-3.1 0-.3 3.3-3.1 7.3-6.3 3.9-3.2 7.4-6.1 7.7-6.4.3-.3 1.4-1.3 2.6-2.1 1.1-.8 4.1-3 6.5-5.1 2.4-2 17.5-14 33.4-26.8 16-12.7 29.9-23.9 31-24.8 1.1-.9 11.8-9.5 23.8-19.1 18.8-15.1 22.7-18.3 21.5-18-.2 0-19.9 11.2-43.8 25z"/><path d="M290 221.1c-19 10.9-35.6 20.5-37 21.2-1.4.7-10.4 5.9-20 11.4s-19.5 11.1-22 12.5c-2.5 1.4-8 4.6-12.3 7.2-4.3 2.5-8 4.6-8.2 4.6-.1 0-8.5 4.7-18.5 10.5-9.9 5.8-18.3 10.5-18.5 10.5-.2 0-3.9 2.1-8.2 4.6-4.3 2.6-10 5.9-12.8 7.4-2.7 1.5-9 5.1-13.8 7.9-4.9 2.8-9.1 5.1-9.3 5.1-.2 0-2.1 1.1-4.2 2.4-2 1.4-6 3.7-8.8 5.3-16.6 9.2-82.2 46.8-82 47.1.2.1 19.2-4.5 42.2-10.3 23-5.8 42.8-10.7 43.9-11 1.1-.2 5.3-1.3 9.3-2.4l7.3-1.9-.4 27.9c-.3 20-.1 27.7.7 27.1 1.5-1.1 10.6-8.3 13.1-10.4 1.1-.9 5.2-4.2 9-7.3 3.9-3.1 7.7-6.1 8.5-6.8.8-.7 6.2-5 12-9.6 14-11.1 18.1-14.4 19.4-15.6.6-.6 9-7.3 18.6-14.9 9.6-7.7 17.7-14.2 18-14.6.3-.3 1.4-1.3 2.6-2.1 1.1-.8 4.1-3 6.5-5.1 2.4-2 11.4-9.1 19.9-15.9 8.5-6.8 15.7-12.6 16-12.9.3-.3 2.5-2.1 5-4s5.4-4.3 6.5-5.2c1.1-.9 15.3-12.3 31.5-25.2 16.2-13 31.3-25.1 33.4-26.9 2.1-1.7 4.3-3.5 4.9-3.8 1.9-1.3-14-27-16.6-26.8-.7 0-16.7 9-35.7 20z"/></svg>